<svg width="15" height="16" viewBox="0 0 15 16" fill="none" xmlns="http://www.w3.org/2000/svg">
<path d="M1.74324 0.81096C1.35272 0.420435 0.71955 0.420435 0.329026 0.81096C-0.0614983 1.20148 -0.0614983 1.83465 0.329026 2.22517L6.10376 7.99991L0.329086 13.7746C-0.0614382 14.1651 -0.0614386 14.7983 0.329086 15.1888C0.71961 15.5793 1.35278 15.5793 1.7433 15.1888L7.51797 9.41412L13.2927 15.1888C13.6832 15.5793 14.3163 15.5793 14.7069 15.1888C15.0974 14.7983 15.0974 14.1651 14.7069 13.7746L8.93219 7.99991L14.7069 2.22517C15.0974 1.83465 15.0974 1.20148 14.7069 0.81096C14.3164 0.420435 13.6832 0.420435 13.2927 0.81096L7.51797 6.58569L1.74324 0.81096Z" fill="#F5413D"/>
</svg>
