<svg width="40" height="40" viewBox="0 0 40 40" fill="none" xmlns="http://www.w3.org/2000/svg">
<path d="M14.6393 16.2857H23.925M14.6393 20H25.7822M14.6393 23.7143H20.2107M31.3536 29.2857V10.7143C31.3536 9.7292 30.9623 8.78445 30.2657 8.08789C29.5691 7.39133 28.6244 7 27.6393 7H12.7822C11.7971 7 10.8523 7.39133 10.1558 8.08789C9.4592 8.78445 9.06787 9.7292 9.06787 10.7143V29.2857C9.06787 30.2708 9.4592 31.2155 10.1558 31.9121C10.8523 32.6087 11.7971 33 12.7822 33H27.6393C28.6244 33 29.5691 32.6087 30.2657 31.9121C30.9623 31.2155 31.3536 30.2708 31.3536 29.2857Z" stroke="#007DD7" stroke-width="2" stroke-linecap="round" stroke-linejoin="round"/>
</svg>
